<svg width="400" height="400" viewBox="0 0 400 400" fill="none" xmlns="http://www.w3.org/2000/svg">
<path d="M160.7 171.36C172.674 171.36 182.38 161.654 182.38 149.68C182.38 137.706 172.674 128 160.7 128C148.726 128 139.02 137.706 139.02 149.68C139.02 161.654 148.726 171.36 160.7 171.36Z" stroke="#6A0BFF" stroke-width="12" stroke-miterlimit="10" stroke-linecap="round" stroke-linejoin="round"/>
<path d="M50 269.81L124.44 208.45L174.8 250.23" stroke="#6A0BFF" stroke-width="12" stroke-miterlimit="10" stroke-linecap="round" stroke-linejoin="round"/>
<path d="M174.74 250.29L275.1 160.82L350 216.5" stroke="#6A0BFF" stroke-width="12" stroke-miterlimit="10" stroke-linecap="round" stroke-linejoin="round"/>
<path d="M329.93 313.41H70.07C58.99 313.41 50 304.42 50 293.34V106.66C50 95.58 58.99 86.59 70.07 86.59H329.93C341.01 86.59 350 95.58 350 106.66V293.34C350 304.42 341.01 313.41 329.93 313.41Z" stroke="#191919" stroke-width="12" stroke-miterlimit="10" stroke-linecap="round" stroke-linejoin="round"/>
</svg>
